{
  "asset": {
    "generator": "Khronos glTF Blender I/O v0.9.36",
    "version": "2.0"
  },
  "scene": 0,
  "scenes": [
    {
      "name": "Scene",
      "nodes": [
        0
      ]
    }
  ],
  "nodes": [
    {
      "mesh": 0,
      "name": "Plane",
      "translation": [
        1.0327969789505005,
        0,
        -1.03279709815979
      ]
    }
  ],
  "materials": [
    {
      "doubleSided": true,
      "name": "Material.001",
      "pbrMetallicRoughness": {}
    }
  ],
  "meshes": [
    {
      "name": "Plane",
      "primitives": [
        {
          "attributes": {
            "POSITION": 0,
            "NORMAL": 1,
            "TEXCOORD_0": 2
          },
          "indices": 3,
          "material": 0
        }
      ]
    }
  ],
  "accessors": [
    {
      "bufferView": 0,
      "componentType": 5126,
      "count": 72,
      "max": [
        53.12336349487305,
        0,
        1.03279709815979
      ],
      "min": [
        -1.0327969789505005,
        0,
        -33.68419647216797
      ],
      "type": "VEC3"
    },
    {
      "bufferView": 1,
      "componentType": 5126,
      "count": 72,
      "type": "VEC3"
    },
    {
      "bufferView": 2,
      "componentType": 5126,
      "count": 72,
      "type": "VEC2"
    },
    {
      "bufferView": 3,
      "componentType": 5123,
      "count": 108,
      "type": "SCALAR"
    }
  ],
  "bufferViews": [
    {
      "buffer": 0,
      "byteLength": 864,
      "byteOffset": 0
    },
    {
      "buffer": 0,
      "byteLength": 864,
      "byteOffset": 864
    },
    {
      "buffer": 0,
      "byteLength": 576,
      "byteOffset": 1728
    },
    {
      "buffer": 0,
      "byteLength": 216,
      "byteOffset": 2304
    }
  ],
  "buffers": [
    {
      "uri": "theNest9_data.bin",
      "byteLength": 2520
    }
  ]
}